# xmcd CD database file generated by OrangeCD 6.3
#
# Track frame offsets:
#	150
#	14000
#	26692
#	41440
#	57680
#	75227
#	93107
#	104170
#	123157
#	136195
#	155000
#	171487
#	185390
#	200172
#	217042
#	234015
#	247000
#	264755
#	285085
#	295702
#
# Disc length: 4175 seconds
#
# Revision: 1
# Processed by: cddbd v1.5.2PL0 Copyright (c) Steve Scherf et al.
# Submitted via: OrangeCD 6.3
#
DISCID=17104d14
DTITLE=The Dean Brothers - A Chance To Dance 2
DYEAR=1997
DGENRE=Country
TTITLE0=Love Potion No. 9
TTITLE1=Mi Vida Loca
TTITLE2=Boot Scootin' Boogie
TTITLE3=Fly Like A Bird
TTITLE4=Neon Moon
TTITLE5=Who's Bed Have Your Boots Been Under
TTITLE6=Callin' Baton Rouge
TTITLE7=Swing City Jive
TTITLE8=Easy Come, Easy Go
TTITLE9=Friends In Low Places
TTITLE10=Mercury Blues
TTITLE11=I Feel Lucky
TTITLE12=My Maria
TTITLE13=God Blessed Texas
TTITLE14=All You Ever Do Is Bring Me Down
TTITLE15=Even If I Tried
TTITLE16=Any Man Of Mine
TTITLE17=Copperhead Road
TTITLE18=La Bamba
TTITLE19=Ain't Goin' Down
EXTD=
EXTT0=
EXTT1=
EXTT2=
EXTT3=
EXTT4=
EXTT5=
EXTT6=
EXTT7=
EXTT8=
EXTT9=
EXTT10=
EXTT11=
EXTT12=
EXTT13=
EXTT14=
EXTT15=
EXTT16=
EXTT17=
EXTT18=
EXTT19=
PLAYORDER=
